<mxfile host="Electron" agent="Mozilla/5.0 (Windows NT 10.0; Win64; x64) AppleWebKit/537.36 (KHTML, like Gecko) draw.io/24.7.8 Chrome/128.0.6613.36 Electron/32.0.1 Safari/537.36" version="24.7.8">
  <diagram name="Page-1" id="e995MOHbL0IESGSoAM8X">
    <mxGraphModel dx="1235" dy="787" grid="1" gridSize="10" guides="1" tooltips="1" connect="1" arrows="1" fold="1" page="1" pageScale="1" pageWidth="850" pageHeight="1100" math="0" shadow="0">
      <root>
        <mxCell id="0" />
        <mxCell id="1" parent="0" />
        <mxCell id="yoaOcqHaSxs_0SUbm4wB-37" style="edgeStyle=orthogonalEdgeStyle;rounded=0;orthogonalLoop=1;jettySize=auto;html=1;entryX=0;entryY=0.5;entryDx=0;entryDy=0;" parent="1" target="yoaOcqHaSxs_0SUbm4wB-35" edge="1">
          <mxGeometry relative="1" as="geometry">
            <Array as="points">
              <mxPoint x="100" y="240" />
            </Array>
            <mxPoint x="100" y="420" as="sourcePoint" />
          </mxGeometry>
        </mxCell>
        <mxCell id="yoaOcqHaSxs_0SUbm4wB-38" style="edgeStyle=orthogonalEdgeStyle;rounded=0;orthogonalLoop=1;jettySize=auto;html=1;entryX=0;entryY=0.5;entryDx=0;entryDy=0;" parent="1" target="yoaOcqHaSxs_0SUbm4wB-36" edge="1">
          <mxGeometry relative="1" as="geometry">
            <Array as="points">
              <mxPoint x="100" y="340" />
            </Array>
            <mxPoint x="100" y="420" as="sourcePoint" />
          </mxGeometry>
        </mxCell>
        <mxCell id="yoaOcqHaSxs_0SUbm4wB-46" style="edgeStyle=orthogonalEdgeStyle;rounded=0;orthogonalLoop=1;jettySize=auto;html=1;" parent="1" target="yoaOcqHaSxs_0SUbm4wB-42" edge="1">
          <mxGeometry relative="1" as="geometry">
            <mxPoint x="160" y="450" as="sourcePoint" />
          </mxGeometry>
        </mxCell>
        <mxCell id="yoaOcqHaSxs_0SUbm4wB-35" value="Search &amp;amp; Filters" style="rounded=1;whiteSpace=wrap;html=1;" parent="1" vertex="1">
          <mxGeometry x="220" y="210" width="120" height="60" as="geometry" />
        </mxCell>
        <mxCell id="yoaOcqHaSxs_0SUbm4wB-36" value="Add" style="rounded=1;whiteSpace=wrap;html=1;" parent="1" vertex="1">
          <mxGeometry x="220" y="310" width="120" height="60" as="geometry" />
        </mxCell>
        <mxCell id="yoaOcqHaSxs_0SUbm4wB-42" value="Table" style="swimlane;fontStyle=0;childLayout=stackLayout;horizontal=1;startSize=30;horizontalStack=0;resizeParent=1;resizeParentMax=0;resizeLast=0;collapsible=1;marginBottom=0;whiteSpace=wrap;html=1;" parent="1" vertex="1">
          <mxGeometry x="225" y="480" width="185" height="360" as="geometry" />
        </mxCell>
        <mxCell id="yoaOcqHaSxs_0SUbm4wB-43" value="Store ID" style="text;strokeColor=none;fillColor=none;align=left;verticalAlign=middle;spacingLeft=4;spacingRight=4;overflow=hidden;points=[[0,0.5],[1,0.5]];portConstraint=eastwest;rotatable=0;whiteSpace=wrap;html=1;" parent="yoaOcqHaSxs_0SUbm4wB-42" vertex="1">
          <mxGeometry y="30" width="185" height="30" as="geometry" />
        </mxCell>
        <mxCell id="yoaOcqHaSxs_0SUbm4wB-44" value="Store Name" style="text;strokeColor=none;fillColor=none;align=left;verticalAlign=middle;spacingLeft=4;spacingRight=4;overflow=hidden;points=[[0,0.5],[1,0.5]];portConstraint=eastwest;rotatable=0;whiteSpace=wrap;html=1;" parent="yoaOcqHaSxs_0SUbm4wB-42" vertex="1">
          <mxGeometry y="60" width="185" height="30" as="geometry" />
        </mxCell>
        <mxCell id="yoaOcqHaSxs_0SUbm4wB-45" value="Store Country" style="text;strokeColor=none;fillColor=none;align=left;verticalAlign=middle;spacingLeft=4;spacingRight=4;overflow=hidden;points=[[0,0.5],[1,0.5]];portConstraint=eastwest;rotatable=0;whiteSpace=wrap;html=1;" parent="yoaOcqHaSxs_0SUbm4wB-42" vertex="1">
          <mxGeometry y="90" width="185" height="30" as="geometry" />
        </mxCell>
        <mxCell id="yoaOcqHaSxs_0SUbm4wB-62" value="Store Address" style="text;strokeColor=none;fillColor=none;align=left;verticalAlign=middle;spacingLeft=4;spacingRight=4;overflow=hidden;points=[[0,0.5],[1,0.5]];portConstraint=eastwest;rotatable=0;whiteSpace=wrap;html=1;" parent="yoaOcqHaSxs_0SUbm4wB-42" vertex="1">
          <mxGeometry y="120" width="185" height="30" as="geometry" />
        </mxCell>
        <mxCell id="yoaOcqHaSxs_0SUbm4wB-61" value="Store City" style="text;strokeColor=none;fillColor=none;align=left;verticalAlign=middle;spacingLeft=4;spacingRight=4;overflow=hidden;points=[[0,0.5],[1,0.5]];portConstraint=eastwest;rotatable=0;whiteSpace=wrap;html=1;" parent="yoaOcqHaSxs_0SUbm4wB-42" vertex="1">
          <mxGeometry y="150" width="185" height="30" as="geometry" />
        </mxCell>
        <mxCell id="yoaOcqHaSxs_0SUbm4wB-60" value="Store State" style="text;strokeColor=none;fillColor=none;align=left;verticalAlign=middle;spacingLeft=4;spacingRight=4;overflow=hidden;points=[[0,0.5],[1,0.5]];portConstraint=eastwest;rotatable=0;whiteSpace=wrap;html=1;" parent="yoaOcqHaSxs_0SUbm4wB-42" vertex="1">
          <mxGeometry y="180" width="185" height="30" as="geometry" />
        </mxCell>
        <mxCell id="yoaOcqHaSxs_0SUbm4wB-57" value="Store Pin Code" style="text;strokeColor=none;fillColor=none;align=left;verticalAlign=middle;spacingLeft=4;spacingRight=4;overflow=hidden;points=[[0,0.5],[1,0.5]];portConstraint=eastwest;rotatable=0;whiteSpace=wrap;html=1;" parent="yoaOcqHaSxs_0SUbm4wB-42" vertex="1">
          <mxGeometry y="210" width="185" height="30" as="geometry" />
        </mxCell>
        <mxCell id="kTVfm1OgH7Nki4kQpCt1-3" value="&lt;b style=&quot;background-color: rgb(255, 153, 255);&quot;&gt;Product List&lt;/b&gt;" style="text;strokeColor=none;fillColor=none;align=left;verticalAlign=middle;spacingLeft=4;spacingRight=4;overflow=hidden;points=[[0,0.5],[1,0.5]];portConstraint=eastwest;rotatable=0;whiteSpace=wrap;html=1;labelBackgroundColor=#FF6666;" vertex="1" parent="yoaOcqHaSxs_0SUbm4wB-42">
          <mxGeometry y="240" width="185" height="30" as="geometry" />
        </mxCell>
        <mxCell id="yoaOcqHaSxs_0SUbm4wB-59" value="&lt;b&gt;Contact Person Details&lt;/b&gt;" style="text;strokeColor=none;fillColor=none;align=left;verticalAlign=middle;spacingLeft=4;spacingRight=4;overflow=hidden;points=[[0,0.5],[1,0.5]];portConstraint=eastwest;rotatable=0;whiteSpace=wrap;html=1;labelBackgroundColor=#FF6666;" parent="yoaOcqHaSxs_0SUbm4wB-42" vertex="1">
          <mxGeometry y="270" width="185" height="30" as="geometry" />
        </mxCell>
        <mxCell id="yoaOcqHaSxs_0SUbm4wB-102" value="Edit" style="text;strokeColor=none;fillColor=none;align=left;verticalAlign=middle;spacingLeft=4;spacingRight=4;overflow=hidden;points=[[0,0.5],[1,0.5]];portConstraint=eastwest;rotatable=0;whiteSpace=wrap;html=1;fontStyle=1;labelBackgroundColor=#FFD966;" parent="yoaOcqHaSxs_0SUbm4wB-42" vertex="1">
          <mxGeometry y="300" width="185" height="30" as="geometry" />
        </mxCell>
        <mxCell id="yoaOcqHaSxs_0SUbm4wB-101" value="Delete" style="text;strokeColor=none;fillColor=none;align=left;verticalAlign=middle;spacingLeft=4;spacingRight=4;overflow=hidden;points=[[0,0.5],[1,0.5]];portConstraint=eastwest;rotatable=0;whiteSpace=wrap;html=1;fontStyle=1;labelBackgroundColor=#FFD966;" parent="yoaOcqHaSxs_0SUbm4wB-42" vertex="1">
          <mxGeometry y="330" width="185" height="30" as="geometry" />
        </mxCell>
        <mxCell id="yoaOcqHaSxs_0SUbm4wB-69" value="&lt;b style=&quot;text-align: left; background-color: rgb(255, 102, 102);&quot;&gt;Contact Person Details&lt;/b&gt;" style="swimlane;fontStyle=0;childLayout=stackLayout;horizontal=1;startSize=30;horizontalStack=0;resizeParent=1;resizeParentMax=0;resizeLast=0;collapsible=1;marginBottom=0;whiteSpace=wrap;html=1;" parent="1" vertex="1">
          <mxGeometry x="482.5" y="810" width="140" height="120" as="geometry" />
        </mxCell>
        <mxCell id="yoaOcqHaSxs_0SUbm4wB-85" value="Contact Person Name" style="text;strokeColor=none;fillColor=none;align=left;verticalAlign=middle;spacingLeft=4;spacingRight=4;overflow=hidden;points=[[0,0.5],[1,0.5]];portConstraint=eastwest;rotatable=0;whiteSpace=wrap;html=1;" parent="yoaOcqHaSxs_0SUbm4wB-69" vertex="1">
          <mxGeometry y="30" width="140" height="30" as="geometry" />
        </mxCell>
        <mxCell id="yoaOcqHaSxs_0SUbm4wB-78" value="Contact" style="text;strokeColor=none;fillColor=none;align=left;verticalAlign=middle;spacingLeft=4;spacingRight=4;overflow=hidden;points=[[0,0.5],[1,0.5]];portConstraint=eastwest;rotatable=0;whiteSpace=wrap;html=1;" parent="yoaOcqHaSxs_0SUbm4wB-69" vertex="1">
          <mxGeometry y="60" width="140" height="30" as="geometry" />
        </mxCell>
        <mxCell id="yoaOcqHaSxs_0SUbm4wB-79" value="Email" style="text;strokeColor=none;fillColor=none;align=left;verticalAlign=middle;spacingLeft=4;spacingRight=4;overflow=hidden;points=[[0,0.5],[1,0.5]];portConstraint=eastwest;rotatable=0;whiteSpace=wrap;html=1;" parent="yoaOcqHaSxs_0SUbm4wB-69" vertex="1">
          <mxGeometry y="90" width="140" height="30" as="geometry" />
        </mxCell>
        <mxCell id="yoaOcqHaSxs_0SUbm4wB-100" style="edgeStyle=orthogonalEdgeStyle;rounded=0;orthogonalLoop=1;jettySize=auto;html=1;" parent="1" source="yoaOcqHaSxs_0SUbm4wB-59" target="yoaOcqHaSxs_0SUbm4wB-69" edge="1">
          <mxGeometry relative="1" as="geometry" />
        </mxCell>
        <mxCell id="kTVfm1OgH7Nki4kQpCt1-1" value="Store Management" style="rounded=1;whiteSpace=wrap;html=1;fillColor=#ffe6cc;strokeColor=#d79b00;" vertex="1" parent="1">
          <mxGeometry x="365" y="40" width="120" height="60" as="geometry" />
        </mxCell>
        <mxCell id="kTVfm1OgH7Nki4kQpCt1-2" value="Store Management" style="rounded=1;whiteSpace=wrap;html=1;fillColor=#ffe6cc;strokeColor=#d79b00;" vertex="1" parent="1">
          <mxGeometry x="40" y="410" width="120" height="60" as="geometry" />
        </mxCell>
        <mxCell id="kTVfm1OgH7Nki4kQpCt1-4" value="&lt;b style=&quot;text-align: left; background-color: rgb(255, 153, 255);&quot;&gt;Product List&lt;/b&gt;" style="swimlane;fontStyle=0;childLayout=stackLayout;horizontal=1;startSize=30;horizontalStack=0;resizeParent=1;resizeParentMax=0;resizeLast=0;collapsible=1;marginBottom=0;whiteSpace=wrap;html=1;" vertex="1" parent="1">
          <mxGeometry x="460" y="330" width="185" height="270" as="geometry" />
        </mxCell>
        <mxCell id="kTVfm1OgH7Nki4kQpCt1-5" value="SKU ID" style="text;strokeColor=none;fillColor=none;align=left;verticalAlign=middle;spacingLeft=4;spacingRight=4;overflow=hidden;points=[[0,0.5],[1,0.5]];portConstraint=eastwest;rotatable=0;whiteSpace=wrap;html=1;" vertex="1" parent="kTVfm1OgH7Nki4kQpCt1-4">
          <mxGeometry y="30" width="185" height="30" as="geometry" />
        </mxCell>
        <mxCell id="kTVfm1OgH7Nki4kQpCt1-6" value="Product Name" style="text;strokeColor=none;fillColor=none;align=left;verticalAlign=middle;spacingLeft=4;spacingRight=4;overflow=hidden;points=[[0,0.5],[1,0.5]];portConstraint=eastwest;rotatable=0;whiteSpace=wrap;html=1;" vertex="1" parent="kTVfm1OgH7Nki4kQpCt1-4">
          <mxGeometry y="60" width="185" height="30" as="geometry" />
        </mxCell>
        <mxCell id="kTVfm1OgH7Nki4kQpCt1-7" value="Product Type" style="text;strokeColor=none;fillColor=none;align=left;verticalAlign=middle;spacingLeft=4;spacingRight=4;overflow=hidden;points=[[0,0.5],[1,0.5]];portConstraint=eastwest;rotatable=0;whiteSpace=wrap;html=1;" vertex="1" parent="kTVfm1OgH7Nki4kQpCt1-4">
          <mxGeometry y="90" width="185" height="30" as="geometry" />
        </mxCell>
        <mxCell id="kTVfm1OgH7Nki4kQpCt1-8" value="Price in AED" style="text;strokeColor=none;fillColor=none;align=left;verticalAlign=middle;spacingLeft=4;spacingRight=4;overflow=hidden;points=[[0,0.5],[1,0.5]];portConstraint=eastwest;rotatable=0;whiteSpace=wrap;html=1;" vertex="1" parent="kTVfm1OgH7Nki4kQpCt1-4">
          <mxGeometry y="120" width="185" height="30" as="geometry" />
        </mxCell>
        <mxCell id="kTVfm1OgH7Nki4kQpCt1-13" value="&lt;b style=&quot;background-color: rgb(153, 255, 153);&quot;&gt;Supplier Details&lt;/b&gt;" style="text;strokeColor=none;fillColor=none;align=left;verticalAlign=middle;spacingLeft=4;spacingRight=4;overflow=hidden;points=[[0,0.5],[1,0.5]];portConstraint=eastwest;rotatable=0;whiteSpace=wrap;html=1;labelBackgroundColor=#FF6666;" vertex="1" parent="kTVfm1OgH7Nki4kQpCt1-4">
          <mxGeometry y="150" width="185" height="30" as="geometry" />
        </mxCell>
        <mxCell id="kTVfm1OgH7Nki4kQpCt1-17" value="Add" style="text;strokeColor=none;fillColor=none;align=left;verticalAlign=middle;spacingLeft=4;spacingRight=4;overflow=hidden;points=[[0,0.5],[1,0.5]];portConstraint=eastwest;rotatable=0;whiteSpace=wrap;html=1;fontStyle=1;labelBackgroundColor=#FFD966;" vertex="1" parent="kTVfm1OgH7Nki4kQpCt1-4">
          <mxGeometry y="180" width="185" height="30" as="geometry" />
        </mxCell>
        <mxCell id="kTVfm1OgH7Nki4kQpCt1-14" value="Edit" style="text;strokeColor=none;fillColor=none;align=left;verticalAlign=middle;spacingLeft=4;spacingRight=4;overflow=hidden;points=[[0,0.5],[1,0.5]];portConstraint=eastwest;rotatable=0;whiteSpace=wrap;html=1;fontStyle=1;labelBackgroundColor=#FFD966;" vertex="1" parent="kTVfm1OgH7Nki4kQpCt1-4">
          <mxGeometry y="210" width="185" height="30" as="geometry" />
        </mxCell>
        <mxCell id="kTVfm1OgH7Nki4kQpCt1-15" value="Delete" style="text;strokeColor=none;fillColor=none;align=left;verticalAlign=middle;spacingLeft=4;spacingRight=4;overflow=hidden;points=[[0,0.5],[1,0.5]];portConstraint=eastwest;rotatable=0;whiteSpace=wrap;html=1;fontStyle=1;labelBackgroundColor=#FFD966;" vertex="1" parent="kTVfm1OgH7Nki4kQpCt1-4">
          <mxGeometry y="240" width="185" height="30" as="geometry" />
        </mxCell>
        <mxCell id="kTVfm1OgH7Nki4kQpCt1-16" style="edgeStyle=orthogonalEdgeStyle;rounded=0;orthogonalLoop=1;jettySize=auto;html=1;" edge="1" parent="1" source="kTVfm1OgH7Nki4kQpCt1-3" target="kTVfm1OgH7Nki4kQpCt1-4">
          <mxGeometry relative="1" as="geometry" />
        </mxCell>
        <mxCell id="kTVfm1OgH7Nki4kQpCt1-18" value="&lt;b style=&quot;text-align: left; background-color: rgb(153, 255, 153);&quot;&gt;Supplier Details&lt;/b&gt;" style="swimlane;fontStyle=0;childLayout=stackLayout;horizontal=1;startSize=30;horizontalStack=0;resizeParent=1;resizeParentMax=0;resizeLast=0;collapsible=1;marginBottom=0;whiteSpace=wrap;html=1;" vertex="1" parent="1">
          <mxGeometry x="690" y="340" width="140" height="360" as="geometry" />
        </mxCell>
        <mxCell id="kTVfm1OgH7Nki4kQpCt1-19" value="Supplier Name" style="text;strokeColor=none;fillColor=none;align=left;verticalAlign=middle;spacingLeft=4;spacingRight=4;overflow=hidden;points=[[0,0.5],[1,0.5]];portConstraint=eastwest;rotatable=0;whiteSpace=wrap;html=1;" vertex="1" parent="kTVfm1OgH7Nki4kQpCt1-18">
          <mxGeometry y="30" width="140" height="30" as="geometry" />
        </mxCell>
        <mxCell id="kTVfm1OgH7Nki4kQpCt1-20" value="Contact Person Name" style="text;strokeColor=none;fillColor=none;align=left;verticalAlign=middle;spacingLeft=4;spacingRight=4;overflow=hidden;points=[[0,0.5],[1,0.5]];portConstraint=eastwest;rotatable=0;whiteSpace=wrap;html=1;" vertex="1" parent="kTVfm1OgH7Nki4kQpCt1-18">
          <mxGeometry y="60" width="140" height="30" as="geometry" />
        </mxCell>
        <mxCell id="kTVfm1OgH7Nki4kQpCt1-21" value="Supplier Currency" style="text;strokeColor=none;fillColor=none;align=left;verticalAlign=middle;spacingLeft=4;spacingRight=4;overflow=hidden;points=[[0,0.5],[1,0.5]];portConstraint=eastwest;rotatable=0;whiteSpace=wrap;html=1;" vertex="1" parent="kTVfm1OgH7Nki4kQpCt1-18">
          <mxGeometry y="90" width="140" height="30" as="geometry" />
        </mxCell>
        <mxCell id="kTVfm1OgH7Nki4kQpCt1-22" value="Supplier Contact" style="text;strokeColor=none;fillColor=none;align=left;verticalAlign=middle;spacingLeft=4;spacingRight=4;overflow=hidden;points=[[0,0.5],[1,0.5]];portConstraint=eastwest;rotatable=0;whiteSpace=wrap;html=1;" vertex="1" parent="kTVfm1OgH7Nki4kQpCt1-18">
          <mxGeometry y="120" width="140" height="30" as="geometry" />
        </mxCell>
        <mxCell id="kTVfm1OgH7Nki4kQpCt1-23" value="Supplier Email" style="text;strokeColor=none;fillColor=none;align=left;verticalAlign=middle;spacingLeft=4;spacingRight=4;overflow=hidden;points=[[0,0.5],[1,0.5]];portConstraint=eastwest;rotatable=0;whiteSpace=wrap;html=1;" vertex="1" parent="kTVfm1OgH7Nki4kQpCt1-18">
          <mxGeometry y="150" width="140" height="30" as="geometry" />
        </mxCell>
        <mxCell id="kTVfm1OgH7Nki4kQpCt1-24" value="Supplier Address" style="text;strokeColor=none;fillColor=none;align=left;verticalAlign=middle;spacingLeft=4;spacingRight=4;overflow=hidden;points=[[0,0.5],[1,0.5]];portConstraint=eastwest;rotatable=0;whiteSpace=wrap;html=1;" vertex="1" parent="kTVfm1OgH7Nki4kQpCt1-18">
          <mxGeometry y="180" width="140" height="30" as="geometry" />
        </mxCell>
        <mxCell id="kTVfm1OgH7Nki4kQpCt1-25" value="Supplier Country" style="text;strokeColor=none;fillColor=none;align=left;verticalAlign=middle;spacingLeft=4;spacingRight=4;overflow=hidden;points=[[0,0.5],[1,0.5]];portConstraint=eastwest;rotatable=0;whiteSpace=wrap;html=1;" vertex="1" parent="kTVfm1OgH7Nki4kQpCt1-18">
          <mxGeometry y="210" width="140" height="30" as="geometry" />
        </mxCell>
        <mxCell id="kTVfm1OgH7Nki4kQpCt1-26" value="Supplier State" style="text;strokeColor=none;fillColor=none;align=left;verticalAlign=middle;spacingLeft=4;spacingRight=4;overflow=hidden;points=[[0,0.5],[1,0.5]];portConstraint=eastwest;rotatable=0;whiteSpace=wrap;html=1;" vertex="1" parent="kTVfm1OgH7Nki4kQpCt1-18">
          <mxGeometry y="240" width="140" height="30" as="geometry" />
        </mxCell>
        <mxCell id="kTVfm1OgH7Nki4kQpCt1-27" value="Supplier City" style="text;strokeColor=none;fillColor=none;align=left;verticalAlign=middle;spacingLeft=4;spacingRight=4;overflow=hidden;points=[[0,0.5],[1,0.5]];portConstraint=eastwest;rotatable=0;whiteSpace=wrap;html=1;" vertex="1" parent="kTVfm1OgH7Nki4kQpCt1-18">
          <mxGeometry y="270" width="140" height="30" as="geometry" />
        </mxCell>
        <mxCell id="kTVfm1OgH7Nki4kQpCt1-28" value="Supplier Pin Code" style="text;strokeColor=none;fillColor=none;align=left;verticalAlign=middle;spacingLeft=4;spacingRight=4;overflow=hidden;points=[[0,0.5],[1,0.5]];portConstraint=eastwest;rotatable=0;whiteSpace=wrap;html=1;" vertex="1" parent="kTVfm1OgH7Nki4kQpCt1-18">
          <mxGeometry y="300" width="140" height="30" as="geometry" />
        </mxCell>
        <mxCell id="kTVfm1OgH7Nki4kQpCt1-29" value="Supplier Currency" style="text;strokeColor=none;fillColor=none;align=left;verticalAlign=middle;spacingLeft=4;spacingRight=4;overflow=hidden;points=[[0,0.5],[1,0.5]];portConstraint=eastwest;rotatable=0;whiteSpace=wrap;html=1;" vertex="1" parent="kTVfm1OgH7Nki4kQpCt1-18">
          <mxGeometry y="330" width="140" height="30" as="geometry" />
        </mxCell>
        <mxCell id="kTVfm1OgH7Nki4kQpCt1-30" style="edgeStyle=orthogonalEdgeStyle;rounded=0;orthogonalLoop=1;jettySize=auto;html=1;entryX=0.5;entryY=0;entryDx=0;entryDy=0;" edge="1" parent="1" source="kTVfm1OgH7Nki4kQpCt1-13" target="kTVfm1OgH7Nki4kQpCt1-18">
          <mxGeometry relative="1" as="geometry" />
        </mxCell>
      </root>
    </mxGraphModel>
  </diagram>
</mxfile>
